<svg xmlns="http://www.w3.org/2000/svg" viewBox="0 0 260 68" width="260" height="68">
  <!-- Toe pads -->
  <ellipse cx="10" cy="22" rx="8" ry="10" fill="rgba(212,175,55,0.85)" transform="rotate(-25,10,22)"/>
  <ellipse cx="23" cy="12" rx="8" ry="10" fill="rgba(255,255,255,0.85)" transform="rotate(-8,23,12)"/>
  <ellipse cx="38" cy="12" rx="8" ry="10" fill="rgba(255,255,255,0.85)" transform="rotate(8,38,12)"/>
  <ellipse cx="51" cy="22" rx="8" ry="10" fill="rgba(212,175,55,0.85)" transform="rotate(25,51,22)"/>
  <!-- Main pad -->
  <path d="M8 55 Q4 40 10 30 Q18 20 30.5 20 Q43 20 50 30 Q56 40 52 55 Q46 66 30.5 67 Q15 66 8 55 Z" fill="rgba(255,255,255,0.9)"/>
  <!-- Kiwi silhouette (green) inside main pad -->
  <ellipse cx="33" cy="47" rx="14" ry="12" fill="#4A7337"/>
  <circle cx="18" cy="39" r="7" fill="#4A7337"/>
  <path d="M12 37 L2 34 L12 41 Z" fill="#4A7337"/>
  <path d="M46 46 Q52 42 50 50 Q48 54 44 52 Z" fill="#4A7337"/>
  <rect x="27" y="58" width="3" height="5" rx="1.5" fill="#4A7337"/>
  <rect x="35" y="58" width="3" height="5" rx="1.5" fill="#4A7337"/>

  <text x="74" y="32" font-family="Poppins, sans-serif" font-size="22" font-weight="700" fill="white" letter-spacing="0.3">Kiwi Paws</text>
  <text x="74" y="54" font-family="Poppins, sans-serif" font-size="15" font-weight="500" fill="rgba(212,175,55,0.9)" letter-spacing="2.5">Home Vet</text>
</svg>
